<?xml version="1.0" standalone="no"?>
<!DOCTYPE svg PUBLIC "-//W3C//DTD SVG 20010904//EN"
 "http://www.w3.org/TR/2001/REC-SVG-20010904/DTD/svg10.dtd">
<svg version="1.0" xmlns="http://www.w3.org/2000/svg"
 width="512.000000pt" height="512.000000pt" viewBox="0 0 512.000000 512.000000"
 preserveAspectRatio="xMidYMid meet">

<g transform="translate(0.000000,512.000000) scale(0.100000,-0.100000)"
fill="#415A77" stroke="none">
<path d="M1085 5108 c-272 -30 -522 -152 -721 -352 -205 -205 -322 -449 -354
-738 -14 -135 -14 -2784 1 -2915 33 -294 147 -533 353 -739 209 -210 451 -324
754 -354 74 -8 548 -10 1527 -8 1296 4 1426 5 1490 21 321 78 563 233 745 478
98 132 171 293 217 484 16 64 17 193 21 1490 2 979 0 1453 -8 1527 -30 303
-144 545 -354 754 -206 206 -445 320 -739 353 -119 14 -2813 13 -2932 -1z
m2026 -1017 c19 -6 45 -20 57 -32 l23 -20 -4 -1182 c-4 -1263 -3 -1237 -53
-1391 -44 -136 -136 -262 -241 -332 -195 -129 -528 -161 -788 -74 -80 27 -123
55 -149 100 -19 32 -21 51 -21 215 0 99 3 192 8 207 18 65 66 74 155 29 119
-60 214 -74 308 -46 89 26 135 100 153 245 7 55 11 459 11 1153 0 665 4 1075
10 1086 11 22 51 39 116 51 63 12 368 5 415 -9z"/>
</g>
</svg>
